<mxfile host="app.diagrams.net" modified="2023-01-05T16:00:18.937Z" agent="5.0 (Windows NT 10.0; Win64; x64) AppleWebKit/537.36 (KHTML, like Gecko) Chrome/108.0.0.0 Safari/537.36" version="20.8.1" etag="qsuJ2wTMbPFZcwAT2DbL" type="github">
  <diagram id="1RmRHbpTj4_j-Iz4tDEE" name="Page-1">
    <mxGraphModel dx="1434" dy="774" grid="1" gridSize="10" guides="1" tooltips="1" connect="1" arrows="1" fold="1" page="1" pageScale="1" pageWidth="850" pageHeight="1100" math="0" shadow="0">
      <root>
        <mxCell id="0" />
        <mxCell id="1" parent="0" />
        <mxCell id="p6E2ot9xRlG-Vx-1hV0A-4" value="miner" style="rounded=0;whiteSpace=wrap;html=1;" vertex="1" parent="1">
          <mxGeometry x="60" y="20" width="120" height="60" as="geometry" />
        </mxCell>
        <mxCell id="p6E2ot9xRlG-Vx-1hV0A-5" value="sorter" style="rounded=0;whiteSpace=wrap;html=1;" vertex="1" parent="1">
          <mxGeometry x="355" y="40" width="140" height="20" as="geometry" />
        </mxCell>
        <mxCell id="p6E2ot9xRlG-Vx-1hV0A-6" value="smelter" style="ellipse;whiteSpace=wrap;html=1;aspect=fixed;" vertex="1" parent="1">
          <mxGeometry x="620" y="30" width="80" height="80" as="geometry" />
        </mxCell>
        <mxCell id="p6E2ot9xRlG-Vx-1hV0A-7" value="matrix" style="shape=or;whiteSpace=wrap;html=1;rotation=-90;" vertex="1" parent="1">
          <mxGeometry x="210" y="100" width="60" height="80" as="geometry" />
        </mxCell>
        <mxCell id="p6E2ot9xRlG-Vx-1hV0A-15" style="edgeStyle=orthogonalEdgeStyle;rounded=0;orthogonalLoop=1;jettySize=auto;html=1;exitX=0.5;exitY=1;exitDx=0;exitDy=0;" edge="1" parent="1" source="p6E2ot9xRlG-Vx-1hV0A-10" target="p6E2ot9xRlG-Vx-1hV0A-12">
          <mxGeometry relative="1" as="geometry" />
        </mxCell>
        <mxCell id="p6E2ot9xRlG-Vx-1hV0A-10" value="iron" style="text;html=1;strokeColor=none;fillColor=none;align=center;verticalAlign=middle;whiteSpace=wrap;rounded=0;" vertex="1" parent="1">
          <mxGeometry x="645" y="240" width="60" height="30" as="geometry" />
        </mxCell>
        <mxCell id="p6E2ot9xRlG-Vx-1hV0A-16" style="edgeStyle=orthogonalEdgeStyle;rounded=0;orthogonalLoop=1;jettySize=auto;html=1;exitX=0.5;exitY=1;exitDx=0;exitDy=0;entryX=0.5;entryY=0;entryDx=0;entryDy=0;" edge="1" parent="1" source="p6E2ot9xRlG-Vx-1hV0A-11" target="p6E2ot9xRlG-Vx-1hV0A-13">
          <mxGeometry relative="1" as="geometry" />
        </mxCell>
        <mxCell id="p6E2ot9xRlG-Vx-1hV0A-11" value="copper" style="text;html=1;strokeColor=none;fillColor=none;align=center;verticalAlign=middle;whiteSpace=wrap;rounded=0;" vertex="1" parent="1">
          <mxGeometry x="70" y="260" width="60" height="30" as="geometry" />
        </mxCell>
        <mxCell id="p6E2ot9xRlG-Vx-1hV0A-18" style="edgeStyle=orthogonalEdgeStyle;rounded=0;orthogonalLoop=1;jettySize=auto;html=1;exitX=0.5;exitY=1;exitDx=0;exitDy=0;entryX=0.5;entryY=0;entryDx=0;entryDy=0;" edge="1" parent="1" source="p6E2ot9xRlG-Vx-1hV0A-12" target="p6E2ot9xRlG-Vx-1hV0A-24">
          <mxGeometry relative="1" as="geometry">
            <mxPoint x="675" y="420" as="targetPoint" />
          </mxGeometry>
        </mxCell>
        <mxCell id="p6E2ot9xRlG-Vx-1hV0A-19" style="edgeStyle=orthogonalEdgeStyle;rounded=0;orthogonalLoop=1;jettySize=auto;html=1;exitX=0;exitY=0.5;exitDx=0;exitDy=0;entryX=0.5;entryY=0;entryDx=0;entryDy=0;" edge="1" parent="1" source="p6E2ot9xRlG-Vx-1hV0A-12" target="p6E2ot9xRlG-Vx-1hV0A-23">
          <mxGeometry relative="1" as="geometry">
            <mxPoint x="535" y="430" as="targetPoint" />
          </mxGeometry>
        </mxCell>
        <mxCell id="p6E2ot9xRlG-Vx-1hV0A-12" value="miner" style="rounded=0;whiteSpace=wrap;html=1;" vertex="1" parent="1">
          <mxGeometry x="615" y="280" width="120" height="60" as="geometry" />
        </mxCell>
        <mxCell id="p6E2ot9xRlG-Vx-1hV0A-17" style="edgeStyle=orthogonalEdgeStyle;rounded=0;orthogonalLoop=1;jettySize=auto;html=1;exitX=0.5;exitY=1;exitDx=0;exitDy=0;startArrow=none;" edge="1" parent="1" source="p6E2ot9xRlG-Vx-1hV0A-9">
          <mxGeometry relative="1" as="geometry">
            <mxPoint x="100" y="450" as="targetPoint" />
          </mxGeometry>
        </mxCell>
        <mxCell id="p6E2ot9xRlG-Vx-1hV0A-13" value="miner" style="rounded=0;whiteSpace=wrap;html=1;" vertex="1" parent="1">
          <mxGeometry x="40" y="310" width="120" height="60" as="geometry" />
        </mxCell>
        <mxCell id="p6E2ot9xRlG-Vx-1hV0A-26" value="" style="edgeStyle=orthogonalEdgeStyle;rounded=0;orthogonalLoop=1;jettySize=auto;html=1;exitX=0.5;exitY=1;exitDx=0;exitDy=0;endArrow=none;" edge="1" parent="1" source="p6E2ot9xRlG-Vx-1hV0A-13" target="p6E2ot9xRlG-Vx-1hV0A-9">
          <mxGeometry relative="1" as="geometry">
            <mxPoint x="100" y="450" as="targetPoint" />
            <mxPoint x="100" y="370" as="sourcePoint" />
          </mxGeometry>
        </mxCell>
        <mxCell id="p6E2ot9xRlG-Vx-1hV0A-30" style="edgeStyle=orthogonalEdgeStyle;rounded=0;orthogonalLoop=1;jettySize=auto;html=1;exitX=0;exitY=0;exitDx=70;exitDy=40;exitPerimeter=0;entryX=0;entryY=0.5;entryDx=0;entryDy=0;" edge="1" parent="1" source="p6E2ot9xRlG-Vx-1hV0A-9" target="p6E2ot9xRlG-Vx-1hV0A-20">
          <mxGeometry relative="1" as="geometry" />
        </mxCell>
        <mxCell id="p6E2ot9xRlG-Vx-1hV0A-9" value="storage" style="shape=cube;whiteSpace=wrap;html=1;boundedLbl=1;backgroundOutline=1;darkOpacity=0.05;darkOpacity2=0.1;" vertex="1" parent="1">
          <mxGeometry x="65" y="410" width="70" height="60" as="geometry" />
        </mxCell>
        <mxCell id="p6E2ot9xRlG-Vx-1hV0A-27" value="" style="group" vertex="1" connectable="0" parent="1">
          <mxGeometry x="190" y="410" width="80" height="80" as="geometry" />
        </mxCell>
        <mxCell id="p6E2ot9xRlG-Vx-1hV0A-20" value="smelter" style="ellipse;whiteSpace=wrap;html=1;aspect=fixed;" vertex="1" parent="p6E2ot9xRlG-Vx-1hV0A-27">
          <mxGeometry width="80" height="80" as="geometry" />
        </mxCell>
        <mxCell id="p6E2ot9xRlG-Vx-1hV0A-25" value="copper ingot" style="text;html=1;strokeColor=none;fillColor=none;align=center;verticalAlign=middle;whiteSpace=wrap;rounded=0;" vertex="1" parent="p6E2ot9xRlG-Vx-1hV0A-27">
          <mxGeometry x="10" width="60" height="30" as="geometry" />
        </mxCell>
        <mxCell id="p6E2ot9xRlG-Vx-1hV0A-28" value="" style="group" vertex="1" connectable="0" parent="1">
          <mxGeometry x="635" y="450" width="80" height="80" as="geometry" />
        </mxCell>
        <mxCell id="p6E2ot9xRlG-Vx-1hV0A-21" value="smelter" style="ellipse;whiteSpace=wrap;html=1;aspect=fixed;" vertex="1" parent="p6E2ot9xRlG-Vx-1hV0A-28">
          <mxGeometry width="80" height="80" as="geometry" />
        </mxCell>
        <mxCell id="p6E2ot9xRlG-Vx-1hV0A-24" value="steel" style="text;html=1;strokeColor=none;fillColor=none;align=center;verticalAlign=middle;whiteSpace=wrap;rounded=0;" vertex="1" parent="p6E2ot9xRlG-Vx-1hV0A-28">
          <mxGeometry x="10" width="60" height="30" as="geometry" />
        </mxCell>
        <mxCell id="p6E2ot9xRlG-Vx-1hV0A-29" value="" style="group" vertex="1" connectable="0" parent="1">
          <mxGeometry x="495" y="440" width="80" height="80" as="geometry" />
        </mxCell>
        <mxCell id="p6E2ot9xRlG-Vx-1hV0A-22" value="smelter" style="ellipse;whiteSpace=wrap;html=1;aspect=fixed;" vertex="1" parent="p6E2ot9xRlG-Vx-1hV0A-29">
          <mxGeometry width="80" height="80" as="geometry" />
        </mxCell>
        <mxCell id="p6E2ot9xRlG-Vx-1hV0A-23" value="magnet" style="text;html=1;strokeColor=none;fillColor=none;align=center;verticalAlign=middle;whiteSpace=wrap;rounded=0;" vertex="1" parent="p6E2ot9xRlG-Vx-1hV0A-29">
          <mxGeometry x="10" width="60" height="30" as="geometry" />
        </mxCell>
        <mxCell id="p6E2ot9xRlG-Vx-1hV0A-31" value="storage" style="shape=cube;whiteSpace=wrap;html=1;boundedLbl=1;backgroundOutline=1;darkOpacity=0.05;darkOpacity2=0.1;" vertex="1" parent="1">
          <mxGeometry x="645" y="360" width="70" height="60" as="geometry" />
        </mxCell>
        <mxCell id="p6E2ot9xRlG-Vx-1hV0A-32" value="storage" style="shape=cube;whiteSpace=wrap;html=1;boundedLbl=1;backgroundOutline=1;darkOpacity=0.05;darkOpacity2=0.1;" vertex="1" parent="1">
          <mxGeometry x="505" y="280" width="70" height="60" as="geometry" />
        </mxCell>
        <mxCell id="p6E2ot9xRlG-Vx-1hV0A-55" style="edgeStyle=orthogonalEdgeStyle;rounded=0;orthogonalLoop=1;jettySize=auto;html=1;exitX=0;exitY=0;exitDx=45;exitDy=60;exitPerimeter=0;entryX=1;entryY=0.5;entryDx=0;entryDy=0;" edge="1" parent="1" source="p6E2ot9xRlG-Vx-1hV0A-33" target="p6E2ot9xRlG-Vx-1hV0A-45">
          <mxGeometry relative="1" as="geometry" />
        </mxCell>
        <mxCell id="p6E2ot9xRlG-Vx-1hV0A-65" style="edgeStyle=orthogonalEdgeStyle;rounded=0;orthogonalLoop=1;jettySize=auto;html=1;exitX=0;exitY=0;exitDx=45;exitDy=60;exitPerimeter=0;entryX=0.017;entryY=0.05;entryDx=0;entryDy=0;entryPerimeter=0;" edge="1" parent="1" source="p6E2ot9xRlG-Vx-1hV0A-33" target="p6E2ot9xRlG-Vx-1hV0A-8">
          <mxGeometry relative="1" as="geometry" />
        </mxCell>
        <mxCell id="p6E2ot9xRlG-Vx-1hV0A-33" value="storage" style="shape=cube;whiteSpace=wrap;html=1;boundedLbl=1;backgroundOutline=1;darkOpacity=0.05;darkOpacity2=0.1;" vertex="1" parent="1">
          <mxGeometry x="195" y="520" width="70" height="60" as="geometry" />
        </mxCell>
        <mxCell id="p6E2ot9xRlG-Vx-1hV0A-56" style="edgeStyle=orthogonalEdgeStyle;rounded=0;orthogonalLoop=1;jettySize=auto;html=1;exitX=0;exitY=0;exitDx=0;exitDy=20;exitPerimeter=0;entryX=0.5;entryY=1;entryDx=0;entryDy=0;" edge="1" parent="1" source="p6E2ot9xRlG-Vx-1hV0A-34" target="p6E2ot9xRlG-Vx-1hV0A-45">
          <mxGeometry relative="1" as="geometry" />
        </mxCell>
        <mxCell id="p6E2ot9xRlG-Vx-1hV0A-34" value="storage" style="shape=cube;whiteSpace=wrap;html=1;boundedLbl=1;backgroundOutline=1;darkOpacity=0.05;darkOpacity2=0.1;" vertex="1" parent="1">
          <mxGeometry x="640" y="560" width="70" height="60" as="geometry" />
        </mxCell>
        <mxCell id="p6E2ot9xRlG-Vx-1hV0A-40" style="edgeStyle=orthogonalEdgeStyle;rounded=0;orthogonalLoop=1;jettySize=auto;html=1;entryX=1;entryY=0.5;entryDx=0;entryDy=0;" edge="1" parent="1" source="p6E2ot9xRlG-Vx-1hV0A-35" target="p6E2ot9xRlG-Vx-1hV0A-8">
          <mxGeometry relative="1" as="geometry" />
        </mxCell>
        <mxCell id="p6E2ot9xRlG-Vx-1hV0A-35" value="storage" style="shape=cube;whiteSpace=wrap;html=1;boundedLbl=1;backgroundOutline=1;darkOpacity=0.05;darkOpacity2=0.1;" vertex="1" parent="1">
          <mxGeometry x="420" y="380" width="70" height="60" as="geometry" />
        </mxCell>
        <mxCell id="p6E2ot9xRlG-Vx-1hV0A-36" style="edgeStyle=orthogonalEdgeStyle;rounded=0;orthogonalLoop=1;jettySize=auto;html=1;exitX=0.5;exitY=1;exitDx=0;exitDy=0;entryX=0.457;entryY=0.017;entryDx=0;entryDy=0;entryPerimeter=0;" edge="1" parent="1" source="p6E2ot9xRlG-Vx-1hV0A-22" target="p6E2ot9xRlG-Vx-1hV0A-35">
          <mxGeometry relative="1" as="geometry" />
        </mxCell>
        <mxCell id="p6E2ot9xRlG-Vx-1hV0A-37" style="edgeStyle=orthogonalEdgeStyle;rounded=0;orthogonalLoop=1;jettySize=auto;html=1;exitX=0.5;exitY=1;exitDx=0;exitDy=0;" edge="1" parent="1" source="p6E2ot9xRlG-Vx-1hV0A-21" target="p6E2ot9xRlG-Vx-1hV0A-34">
          <mxGeometry relative="1" as="geometry" />
        </mxCell>
        <mxCell id="p6E2ot9xRlG-Vx-1hV0A-39" style="edgeStyle=orthogonalEdgeStyle;rounded=0;orthogonalLoop=1;jettySize=auto;html=1;exitX=0.5;exitY=1;exitDx=0;exitDy=0;" edge="1" parent="1" source="p6E2ot9xRlG-Vx-1hV0A-20" target="p6E2ot9xRlG-Vx-1hV0A-33">
          <mxGeometry relative="1" as="geometry" />
        </mxCell>
        <mxCell id="p6E2ot9xRlG-Vx-1hV0A-43" value="" style="group" vertex="1" connectable="0" parent="1">
          <mxGeometry x="220" y="610" width="100" height="60" as="geometry" />
        </mxCell>
        <mxCell id="p6E2ot9xRlG-Vx-1hV0A-8" value="assembler" style="triangle;whiteSpace=wrap;html=1;rotation=-90;" vertex="1" parent="p6E2ot9xRlG-Vx-1hV0A-43">
          <mxGeometry x="30" y="-10" width="60" height="80" as="geometry" />
        </mxCell>
        <mxCell id="p6E2ot9xRlG-Vx-1hV0A-42" value="mag coil" style="text;html=1;strokeColor=none;fillColor=none;align=center;verticalAlign=middle;whiteSpace=wrap;rounded=0;" vertex="1" parent="p6E2ot9xRlG-Vx-1hV0A-43">
          <mxGeometry y="15" width="60" height="30" as="geometry" />
        </mxCell>
        <mxCell id="p6E2ot9xRlG-Vx-1hV0A-44" value="" style="group" vertex="1" connectable="0" parent="1">
          <mxGeometry x="380" y="630" width="100" height="60" as="geometry" />
        </mxCell>
        <mxCell id="p6E2ot9xRlG-Vx-1hV0A-45" value="assembler" style="triangle;whiteSpace=wrap;html=1;rotation=-90;" vertex="1" parent="p6E2ot9xRlG-Vx-1hV0A-44">
          <mxGeometry x="30" y="-10" width="60" height="80" as="geometry" />
        </mxCell>
        <mxCell id="p6E2ot9xRlG-Vx-1hV0A-46" value="chip" style="text;html=1;strokeColor=none;fillColor=none;align=center;verticalAlign=middle;whiteSpace=wrap;rounded=0;" vertex="1" parent="p6E2ot9xRlG-Vx-1hV0A-44">
          <mxGeometry y="15" width="60" height="30" as="geometry" />
        </mxCell>
        <mxCell id="p6E2ot9xRlG-Vx-1hV0A-57" value="storage" style="shape=cube;whiteSpace=wrap;html=1;boundedLbl=1;backgroundOutline=1;darkOpacity=0.05;darkOpacity2=0.1;" vertex="1" parent="1">
          <mxGeometry x="300" y="730" width="70" height="60" as="geometry" />
        </mxCell>
        <mxCell id="p6E2ot9xRlG-Vx-1hV0A-58" style="edgeStyle=orthogonalEdgeStyle;rounded=0;orthogonalLoop=1;jettySize=auto;html=1;exitX=0;exitY=0.5;exitDx=0;exitDy=0;entryX=0;entryY=0;entryDx=25;entryDy=0;entryPerimeter=0;" edge="1" parent="1" source="p6E2ot9xRlG-Vx-1hV0A-45" target="p6E2ot9xRlG-Vx-1hV0A-57">
          <mxGeometry relative="1" as="geometry" />
        </mxCell>
        <mxCell id="p6E2ot9xRlG-Vx-1hV0A-59" value="storage" style="shape=cube;whiteSpace=wrap;html=1;boundedLbl=1;backgroundOutline=1;darkOpacity=0.05;darkOpacity2=0.1;" vertex="1" parent="1">
          <mxGeometry x="205" y="730" width="70" height="60" as="geometry" />
        </mxCell>
        <mxCell id="p6E2ot9xRlG-Vx-1hV0A-60" style="edgeStyle=orthogonalEdgeStyle;rounded=0;orthogonalLoop=1;jettySize=auto;html=1;exitX=0;exitY=0.5;exitDx=0;exitDy=0;" edge="1" parent="1" source="p6E2ot9xRlG-Vx-1hV0A-8" target="p6E2ot9xRlG-Vx-1hV0A-59">
          <mxGeometry relative="1" as="geometry" />
        </mxCell>
      </root>
    </mxGraphModel>
  </diagram>
</mxfile>
